<mxfile host="app.diagrams.net" agent="Mozilla/5.0 (Windows NT 10.0; Win64; x64) AppleWebKit/537.36 (KHTML, like Gecko) Chrome/135.0.0.0 Safari/537.36 Edg/135.0.0.0" version="26.2.14">
  <diagram name="第 1 页" id="MK21RDsRQZXyDtW3Zc0i">
    <mxGraphModel dx="921" dy="472" grid="1" gridSize="10" guides="1" tooltips="1" connect="1" arrows="1" fold="1" page="1" pageScale="1" pageWidth="827" pageHeight="1169" math="0" shadow="0">
      <root>
        <mxCell id="0" />
        <mxCell id="1" parent="0" />
        <mxCell id="MyKr70dYu98HI_QNTCRT-10" value="" style="edgeStyle=orthogonalEdgeStyle;rounded=0;orthogonalLoop=1;jettySize=auto;html=1;" edge="1" parent="1" source="MyKr70dYu98HI_QNTCRT-1" target="MyKr70dYu98HI_QNTCRT-8">
          <mxGeometry relative="1" as="geometry" />
        </mxCell>
        <mxCell id="MyKr70dYu98HI_QNTCRT-1" value="输入信号（音频或语言）" style="rounded=1;whiteSpace=wrap;html=1;" vertex="1" parent="1">
          <mxGeometry x="300" y="60" width="140" height="60" as="geometry" />
        </mxCell>
        <mxCell id="MyKr70dYu98HI_QNTCRT-14" value="" style="edgeStyle=orthogonalEdgeStyle;rounded=0;orthogonalLoop=1;jettySize=auto;html=1;" edge="1" parent="1" source="MyKr70dYu98HI_QNTCRT-8" target="MyKr70dYu98HI_QNTCRT-13">
          <mxGeometry relative="1" as="geometry" />
        </mxCell>
        <mxCell id="MyKr70dYu98HI_QNTCRT-8" value="多声道\立体声预处理" style="rounded=0;whiteSpace=wrap;html=1;" vertex="1" parent="1">
          <mxGeometry x="302.5" y="150" width="135" height="50" as="geometry" />
        </mxCell>
        <mxCell id="MyKr70dYu98HI_QNTCRT-20" value="" style="rounded=0;orthogonalLoop=1;jettySize=auto;html=1;entryX=0.5;entryY=0;entryDx=0;entryDy=0;exitX=0.5;exitY=1;exitDx=0;exitDy=0;" edge="1" parent="1" source="MyKr70dYu98HI_QNTCRT-13" target="MyKr70dYu98HI_QNTCRT-19">
          <mxGeometry relative="1" as="geometry" />
        </mxCell>
        <mxCell id="MyKr70dYu98HI_QNTCRT-22" value="" style="rounded=0;orthogonalLoop=1;jettySize=auto;html=1;exitX=0.5;exitY=1;exitDx=0;exitDy=0;entryX=0.5;entryY=0;entryDx=0;entryDy=0;" edge="1" parent="1" source="MyKr70dYu98HI_QNTCRT-13" target="MyKr70dYu98HI_QNTCRT-21">
          <mxGeometry relative="1" as="geometry" />
        </mxCell>
        <mxCell id="MyKr70dYu98HI_QNTCRT-13" value="信号分类与路径选择" style="rounded=0;whiteSpace=wrap;html=1;" vertex="1" parent="1">
          <mxGeometry x="302.5" y="230" width="135" height="50" as="geometry" />
        </mxCell>
        <mxCell id="MyKr70dYu98HI_QNTCRT-24" value="" style="edgeStyle=orthogonalEdgeStyle;rounded=0;orthogonalLoop=1;jettySize=auto;html=1;" edge="1" parent="1" source="MyKr70dYu98HI_QNTCRT-19" target="MyKr70dYu98HI_QNTCRT-23">
          <mxGeometry relative="1" as="geometry" />
        </mxCell>
        <mxCell id="MyKr70dYu98HI_QNTCRT-19" value="时频变换" style="rounded=0;whiteSpace=wrap;html=1;" vertex="1" parent="1">
          <mxGeometry x="200" y="330" width="135" height="50" as="geometry" />
        </mxCell>
        <mxCell id="MyKr70dYu98HI_QNTCRT-26" value="" style="edgeStyle=orthogonalEdgeStyle;rounded=0;orthogonalLoop=1;jettySize=auto;html=1;" edge="1" parent="1" source="MyKr70dYu98HI_QNTCRT-21" target="MyKr70dYu98HI_QNTCRT-25">
          <mxGeometry relative="1" as="geometry" />
        </mxCell>
        <mxCell id="MyKr70dYu98HI_QNTCRT-21" value="线性预测" style="rounded=0;whiteSpace=wrap;html=1;" vertex="1" parent="1">
          <mxGeometry x="413" y="330" width="135" height="50" as="geometry" />
        </mxCell>
        <mxCell id="MyKr70dYu98HI_QNTCRT-23" value="量化与编码" style="rounded=0;whiteSpace=wrap;html=1;" vertex="1" parent="1">
          <mxGeometry x="200" y="420" width="135" height="50" as="geometry" />
        </mxCell>
        <mxCell id="MyKr70dYu98HI_QNTCRT-25" value="量化与编码" style="rounded=0;whiteSpace=wrap;html=1;" vertex="1" parent="1">
          <mxGeometry x="413" y="420" width="135" height="50" as="geometry" />
        </mxCell>
        <mxCell id="MyKr70dYu98HI_QNTCRT-27" value="封装与输出" style="rounded=1;whiteSpace=wrap;html=1;" vertex="1" parent="1">
          <mxGeometry x="317.5" y="510" width="120" height="60" as="geometry" />
        </mxCell>
        <mxCell id="MyKr70dYu98HI_QNTCRT-28" value="" style="endArrow=classic;html=1;rounded=0;exitX=0.5;exitY=1;exitDx=0;exitDy=0;entryX=0.5;entryY=0;entryDx=0;entryDy=0;edgeStyle=orthogonalEdgeStyle;" edge="1" parent="1" source="MyKr70dYu98HI_QNTCRT-23" target="MyKr70dYu98HI_QNTCRT-27">
          <mxGeometry width="50" height="50" relative="1" as="geometry">
            <mxPoint x="390" y="420" as="sourcePoint" />
            <mxPoint x="440" y="370" as="targetPoint" />
          </mxGeometry>
        </mxCell>
        <mxCell id="MyKr70dYu98HI_QNTCRT-29" value="" style="endArrow=classic;html=1;rounded=0;exitX=0.5;exitY=1;exitDx=0;exitDy=0;entryX=0.5;entryY=0;entryDx=0;entryDy=0;edgeStyle=orthogonalEdgeStyle;" edge="1" parent="1" source="MyKr70dYu98HI_QNTCRT-25" target="MyKr70dYu98HI_QNTCRT-27">
          <mxGeometry width="50" height="50" relative="1" as="geometry">
            <mxPoint x="278" y="480" as="sourcePoint" />
            <mxPoint x="388" y="520" as="targetPoint" />
          </mxGeometry>
        </mxCell>
      </root>
    </mxGraphModel>
  </diagram>
</mxfile>
